<?xml version="1.0" encoding="utf-8"?>
<svg xmlns="http://www.w3.org/2000/svg" viewBox="0 0 32 32" width="78" height="80">
  <path d="M10.03125 9.5742188C9.78025 9.5742188 9.5228594 9.5890938 9.2558594 9.6210938L9.4082031 10.099609C9.6432031 10.074609 9.8763281 10.066406 10.111328 10.066406L10.193359 10.066406L10.03125 9.5742188 z M 13.117188 10.050781L13.085938 10.583984C13.352938 10.673984 13.611141 10.771953 13.869141 10.876953L13.902344 10.333984C13.829344 10.293984 13.626187 10.196781 13.117188 10.050781 z M 6.4667969 10.357422C6.2647969 10.462422 6.0539375 10.575078 5.8359375 10.705078L6.2070312 11.271484C6.4170312 11.141484 6.6200781 11.021016 6.8300781 10.916016L6.4667969 10.357422 z M 10.134766 10.382812C9.9080981 10.384485 9.6785937 10.396797 9.4492188 10.419922C7.0892188 10.629922 4.19 12.779609 2.5 15.599609C0.8 18.429609 0.5703125 20.830078 0.5703125 20.830078L6.9492188 20.830078C6.9492187 20.830078 5.7295312 15.26 9.7695312 13C10.609531 12.59 13.220937 11.109219 17.460938 13.949219L17.779297 13.660156C16.579297 12.628906 13.534778 10.357727 10.134766 10.382812 z M 13.101562 12.589844L13.070312 13.097656C13.337312 13.105656 13.602141 13.138313 13.869141 13.195312L13.902344 12.693359C13.628344 12.637359 13.360563 12.605844 13.101562 12.589844 z M 11.210938 12.783203C10.935938 12.863203 10.702 12.953969 10.5 13.042969L10.685547 13.599609C10.919547 13.486609 11.154672 13.389406 11.388672 13.316406L11.210938 12.783203 z M 3.2011719 12.816406C2.9911719 13.018406 2.7895156 13.219875 2.6035156 13.421875L3.2246094 13.955078C3.3946094 13.737078 3.5813906 13.518406 3.7753906 13.316406L3.2011719 12.816406 z M 8.9882812 14.011719C8.8022813 14.182719 8.6313281 14.366734 8.4863281 14.552734L8.875 15.134766C9.012 14.932766 9.1735625 14.746547 9.3515625 14.560547L8.9882812 14.011719 z M 10.150391 15.164062L10.150391 20.726562L11.503906 20.726562L11.503906 19.189453L11.675781 19.367188L12.945312 20.726562L15 20.726562L13.216797 18.927734L13.429688 18.908203C13.482687 18.903203 14.753906 18.768547 14.753906 17.060547C14.753906 15.349547 13.195672 15.170063 13.138672 15.164062L10.150391 15.164062 z M 17.109375 15.203125C16.059375 15.203125 15.705078 16.168422 15.705078 16.607422L15.705078 20.726562L17.082031 20.726562L17.082031 19.716797L18.761719 19.716797L18.761719 20.726562L20.087891 20.726562L20.087891 16.607422C20.087891 15.462422 19.049547 15.203125 18.685547 15.203125L17.109375 15.203125 z M 21.007812 15.203125L21.007812 20.724609L22.449219 20.724609L22.449219 15.203125L21.007812 15.203125 z M 23.318359 15.203125L23.318359 20.726562L26.960938 20.726562L26.960938 19.447266L24.753906 19.447266L24.753906 15.203125L23.318359 15.203125 z M 29.03125 15.203125C28.43925 15.203125 27.619141 15.698859 27.619141 16.630859L27.619141 17.140625C27.619141 18.098625 28.46225 18.544922 29.03125 18.544922L29.748047 18.546875C29.861047 18.543875 30.376953 18.544922 30.376953 18.544922L30.376953 19.455078L27.699219 19.462891L27.699219 20.724609L30.244141 20.724609C30.770141 20.724609 31.616484 20.343266 31.646484 19.322266L31.646484 18.755859C31.646484 17.877859 30.933141 17.353516 30.244141 17.353516L28.826172 17.353516L28.826172 16.474609L31.4375 16.474609L31.4375 15.203125L29.03125 15.203125 z M 7.5585938 16.265625C7.4525937 16.565625 7.3794531 16.86525 7.3144531 17.15625L7.9707031 17.673828C8.0027031 17.358828 8.059625 17.042562 8.140625 16.726562L7.5585938 16.265625 z M 17.667969 16.369141L18.207031 16.369141C18.629031 16.369141 18.749906 16.637203 18.753906 16.783203L18.753906 18.283203L17.074219 18.283203L17.074219 16.783203C17.074219 16.779203 17.081969 16.369141 17.667969 16.369141 z M 11.505859 16.408203L12.884766 16.414062C12.900766 16.421062 13.296875 16.576062 13.296875 17.164062C13.296875 17.751063 12.895797 17.913734 12.841797 17.927734L11.505859 17.927734L11.505859 16.408203 z M 0.40429688 16.591797C0.25129687 16.938797 0.081 17.342547 0 17.560547L0.9296875 17.900391C1.0346875 17.625391 1.2039844 17.228687 1.3339844 16.929688L0.40429688 16.591797 z M 7.1933594 19.208984C7.2093594 19.636984 7.2510156 19.984562 7.2910156 20.226562L8.2617188 20.574219C8.1887187 20.259219 8.1154063 19.903437 8.0664062 19.523438L7.1933594 19.208984 z" fill="red" />
</svg>